<?xml version="1.0" standalone="no"?>
<!DOCTYPE svg PUBLIC "-//W3C//DTD SVG 20010904//EN"
 "http://www.w3.org/TR/2001/REC-SVG-20010904/DTD/svg10.dtd">
<svg version="1.0" xmlns="http://www.w3.org/2000/svg"
 width="1316.000000pt" height="1316.000000pt" viewBox="0 0 1316.000000 1316.000000"
 preserveAspectRatio="xMidYMid meet">
<metadata>
Created by potrace 1.11, written by Peter Selinger 2001-2013
</metadata>
<g transform="translate(0.000000,1316.000000) scale(0.100000,-0.100000)"
fill="#000000" stroke="none">
<path d="M3913 11720 c-17 -10 -159 -141 -315 -291 -156 -150 -297 -285 -314
-302 l-32 -29 -38 42 c-21 22 -52 49 -68 60 -46 27 -477 114 -531 106 -58 -9
-68 6 -70 104 -1 76 -2 80 -48 149 -26 39 -64 89 -83 111 -32 36 -41 40 -83
40 -25 0 -81 -12 -124 -26 -104 -35 -150 -77 -167 -155 -7 -31 -10 -68 -6 -82
8 -32 103 -160 191 -256 l68 -75 -55 -51 c-43 -40 -69 -55 -118 -69 -44 -12
-72 -27 -91 -49 -16 -17 -29 -35 -29 -38 0 -4 -29 -28 -65 -54 -36 -25 -77
-61 -92 -80 -31 -39 -55 -44 -75 -17 -22 32 -54 42 -127 42 -58 0 -72 -3 -84
-19 -13 -19 -18 -20 -210 -7 -213 15 -234 20 -265 77 -30 53 -150 95 -337 119
-49 6 -154 20 -232 31 -181 25 -239 23 -264 -11 -19 -25 -69 -209 -69 -253 0
-44 51 -57 335 -84 320 -30 368 -28 500 23 115 45 139 46 403 25 l162 -14 0
-26 c0 -15 -7 -36 -15 -47 -8 -10 -20 -36 -26 -58 -13 -47 -5 -68 67 -186 59
-95 91 -120 157 -120 39 0 62 12 210 108 143 92 169 113 186 149 27 55 36 59
60 24 26 -37 121 -296 121 -331 0 -19 -36 -65 -136 -175 -777 -855 -933 -1060
-1304 -1711 -264 -462 -280 -510 -170 -529 78 -13 286 78 490 215 205 137 837
607 1115 829 330 264 437 356 585 505 63 64 118 116 122 116 5 0 8 -193 8
-430 l0 -430 260 0 260 0 15 -24 c23 -35 279 -643 601 -1428 13 -32 35 -85 49
-118 14 -33 36 -86 49 -117 13 -32 56 -134 96 -228 40 -93 169 -402 286 -685
118 -283 223 -535 234 -560 11 -25 103 -247 206 -495 215 -521 412 -993 549
-1320 54 -126 108 -256 121 -288 13 -31 35 -84 49 -117 14 -33 36 -86 49 -118
13 -31 110 -264 215 -517 106 -253 205 -491 221 -530 l29 -70 680 -3 680 -2
25 22 c15 14 47 77 79 158 58 143 194 474 227 550 33 78 173 413 304 730 70
168 135 325 146 350 11 25 118 284 239 575 121 292 285 688 366 880 81 193
158 375 170 405 72 175 100 243 170 415 42 105 106 260 142 345 36 85 76 180
88 210 12 30 66 159 120 285 54 127 108 255 120 285 12 30 50 123 84 205 34
83 100 242 146 355 172 423 353 852 363 862 5 5 114 9 271 8 l261 -1 0 107 0
106 54 -46 c42 -36 62 -46 89 -46 58 0 84 15 92 52 3 18 13 55 22 82 11 35 13
54 6 66 -16 25 65 266 111 329 20 28 36 62 36 76 0 14 5 25 11 25 21 0 155
-108 181 -146 14 -21 34 -64 43 -96 20 -70 42 -86 136 -98 91 -11 103 -22 90
-81 -6 -24 -11 -96 -11 -159 0 -69 -8 -165 -21 -240 -26 -152 -21 -234 20
-375 35 -120 64 -353 65 -520 0 -107 -3 -129 -28 -200 -15 -44 -58 -137 -94
-206 -59 -114 -65 -129 -52 -144 13 -15 27 -17 102 -12 102 7 117 13 155 69
15 23 45 50 65 60 20 11 40 28 43 39 4 10 -3 64 -14 118 -28 134 -27 183 11
413 l32 197 -33 141 c-24 103 -32 157 -29 198 6 78 61 194 122 256 72 73 90
121 82 221 l-7 82 46 5 c51 6 86 32 105 79 8 17 23 32 37 36 24 5 25 8 19 58
-5 44 -3 55 14 70 18 16 23 17 46 4 23 -12 27 -11 40 6 23 31 17 62 -26 135
-22 38 -40 79 -40 92 0 34 28 151 61 254 37 118 59 266 59 401 0 92 -4 115
-24 158 -13 28 -38 64 -57 79 -40 34 -125 76 -154 76 -11 0 -31 7 -43 16 -21
14 -23 23 -20 87 2 66 -1 79 -38 157 -59 125 -117 182 -205 204 -52 12 -288
-96 -320 -147 -34 -55 -34 -75 -1 -176 17 -53 34 -113 38 -134 5 -30 19 -48
65 -89 33 -28 57 -53 55 -55 -2 -2 -50 -17 -107 -34 -88 -26 -126 -31 -244
-35 -157 -5 -149 -7 -403 80 -222 76 -268 75 -376 -8 l-48 -36 -1409 0 -1409
0 2 -787 3 -788 273 -3 c149 -1 272 -4 272 -6 0 -2 -75 -181 -166 -397 -257
-609 -350 -828 -434 -1029 -43 -102 -112 -266 -155 -365 -42 -99 -85 -204 -96
-232 -19 -50 -48 -88 -35 -47 3 11 64 255 136 544 72 289 135 542 141 562 6
22 17 39 29 43 11 4 34 18 50 32 24 20 30 33 30 65 0 34 -31 129 -50 151 -3 4
-31 -6 -61 -21 -83 -45 -101 -46 -189 -17 -76 25 -98 38 -218 122 -57 40 -64
50 -121 165 -65 135 -68 145 -80 301 -6 84 -12 114 -28 135 l-20 27 38 27 c56
40 73 79 74 170 0 42 4 80 8 84 18 18 1 54 -54 114 l-59 65 -98 0 c-139 -1
-147 -4 -171 -70 -15 -40 -21 -79 -21 -136 l0 -81 -28 7 c-16 3 -41 1 -57 -5
-38 -15 -194 5 -251 31 -23 10 -53 19 -68 19 -52 0 -196 -90 -282 -174 -73
-73 -141 -221 -107 -233 6 -2 19 10 29 26 32 54 34 33 3 -26 -25 -49 -31 -77
-40 -178 -22 -248 -22 -249 -5 -305 22 -74 20 -109 -10 -198 -21 -59 -25 -86
-20 -126 9 -75 17 -80 159 -86 152 -6 166 -14 190 -99 22 -80 21 -102 -5 -139
-116 -161 -203 -271 -209 -265 -9 9 -32 63 -143 331 -13 31 -90 215 -171 407
-81 193 -158 376 -171 408 -62 149 -75 179 -118 281 -25 60 -46 113 -46 117 0
5 122 9 270 9 l270 0 0 785 0 785 -1275 0 c-701 0 -1275 2 -1275 5 0 2 38 63
85 135 55 84 91 130 103 130 9 0 69 -7 132 -15 63 -9 225 -18 360 -22 301 -7
282 -16 305 138 22 157 21 187 -11 199 -14 6 -156 10 -328 10 l-304 0 40 108
c74 197 97 277 114 393 19 131 15 302 -9 389 -27 98 -100 136 -174 90z m7327
-1654 c74 -35 154 -69 175 -75 67 -18 198 -41 233 -41 17 0 32 -4 32 -9 0 -12
-83 -72 -136 -99 -22 -11 -97 -30 -165 -41 -104 -17 -167 -33 -341 -88 -17 -5
-18 10 -18 212 l0 218 42 -7 c22 -4 103 -35 178 -70z m790 -285 c7 -14 6 -27
-5 -48 -9 -15 -20 -40 -25 -56 -5 -15 -18 -30 -27 -33 -10 -3 -39 -16 -64 -30
-26 -13 -58 -24 -70 -24 -28 0 -209 62 -209 72 0 9 54 25 130 38 93 16 121 26
176 65 55 40 79 43 94 16z m-850 -209 c0 -4 -5 -23 -11 -42 -6 -19 -14 -102
-18 -185 -7 -139 -10 -156 -40 -225 -30 -69 -60 -110 -82 -110 -15 0 -11 527
4 537 13 9 100 30 130 32 9 0 17 -2 17 -7z m1378 -312 c34 -45 43 -75 28 -95
-11 -15 -16 -10 -49 41 -37 56 -41 84 -14 84 7 0 23 -13 35 -30z m-5204 -1505
c190 -92 243 -108 309 -93 43 10 95 6 158 -12 l36 -10 -98 -413 c-252 -1056
-237 -998 -322 -1198 l-70 -167 -46 47 c-25 26 -75 64 -111 85 -75 43 -150
112 -150 137 0 10 12 41 28 70 23 46 27 65 27 135 0 70 -4 88 -22 113 l-23 30
24 53 c77 175 79 182 85 270 4 48 12 93 19 100 23 23 12 77 -43 206 -30 72
-55 135 -55 140 0 6 19 12 43 14 42 3 42 3 37 38 -5 41 -4 120 5 205 6 53 3
69 -25 135 -27 62 -31 82 -26 125 3 30 12 55 23 63 9 6 18 12 18 12 1 0 81
-38 179 -85z m-513 -842 c37 -48 41 -57 34 -90 -4 -21 -18 -64 -31 -95 -28
-66 -31 -138 -9 -191 8 -20 15 -52 15 -72 0 -31 -3 -35 -25 -35 -29 0 -28 8
-25 -141 2 -119 -6 -154 -47 -200 -8 -9 -22 -39 -33 -65 -18 -47 -19 -48 -28
-24 -11 28 -93 221 -184 435 -53 122 -108 256 -108 260 0 1 17 7 38 13 40 12
160 127 263 251 l53 64 23 -29 c13 -16 42 -53 64 -81z"/>
<path d="M7932 2213 c-88 -43 -101 -157 -26 -222 84 -74 224 -12 224 99 0 104
-105 169 -198 123z m116 -29 c55 -38 67 -116 26 -158 -52 -51 -123 -50 -164 2
-30 37 -34 66 -15 107 29 59 104 84 153 49z"/>
<path d="M7951 2088 c1 -48 4 -63 8 -43 8 38 42 42 51 6 3 -14 11 -26 18 -29
10 -3 10 3 -1 30 -10 25 -11 38 -3 51 16 25 -4 51 -43 55 l-31 3 1 -73z m57
30 c-2 -15 -10 -23 -23 -23 -13 0 -21 8 -23 23 -3 18 1 22 23 22 22 0 26 -4
23 -22z"/>
</g>
</svg>
